<svg xmlns="http://www.w3.org/2000/svg" width="28" height="36.6" viewBox="0 0 28 20.6"><defs><style>.a,.e{fill:#1d2b48;}.a{font-size:11px;font-family:Axiforma-Regular, Axiforma;}.b{fill:none;}.b,.d{stroke:#1d2b48;stroke-linecap:square;stroke-width:1.2px;stroke-dasharray:0 0 0 0;}.c{fill:#fff;}.c,.d{fill-rule:evenodd;}.d{fill:rgba(0,0,0,0);}</style></defs><g transform="translate(-249 -1146.4)"><g transform="translate(-0.5 1.04)"><path class="b" d="M257.7,1160.36c-.1,0,.088,2.649,0,2.6-2.7-1.5-5.2-4.5-5.2-7.8a5.2,5.2,0,1,1,5.2,5.2h0Z"/><path class="c" d="M264.5,1161.96c.149,0-.13,4.087,0,4,4.5-3,8-6.587,8-12a8,8,0,1,0-8,8Z"/><path class="d" d="M264.5,1161.96c.149,0-.13,4.087,0,4,4.5-3,8-6.587,8-12a8,8,0,1,0-8,8Z"/><circle class="e" cx="1" cy="1" r="1" transform="translate(261.5 1152.96)"/><circle class="e" cx="1" cy="1" r="1" transform="translate(265.5 1152.96)"/></g></g></svg>