<svg xmlns="http://www.w3.org/2000/svg" width="22" height="20" viewBox="0 0 22 20"><defs><style>.a{fill:#1d2b48;fill-rule:evenodd;}</style></defs><path class="a" d="M308.122,33.717a.489.489,0,1,0,.977,0V30.123h3.412a.513.513,0,0,0,0-1.025H309.1V25.512a.489.489,0,1,0-.977,0V29.1h-3.438a.513.513,0,0,0,0,1.025h3.438ZM298.6,26.538a3.759,3.759,0,1,1-3.582,3.755,3.672,3.672,0,0,1,3.582-3.755ZM291.978,45h13.243a1,1,0,0,0,.977-1.025,1.072,1.072,0,0,0-.011-.155l-.762-5.231c-.16-2.68-2.373-3.782-4.935-3.782h-3.781c-2.566,0-4.774,1.1-4.935,3.782l-.763,5.231a1.019,1.019,0,0,0,.819,1.168.933.933,0,0,0,.148.012Z" transform="translate(-291 -25)"/></svg>